# xmcd
#
# Track frame offsets:
#	150
#	12915
#	25875
#	37327
#	53042
#	69902
#	82980
#	99204
#	112430
#	126622
#	144340
#	155272
#	176055
#	188742
#	203415
#
# Disc length: 2870 seconds
#
# Revision: 1
# Processed by: cddbd v1.4PL0 Copyright (c) Steve Scherf et al.
# Submitted via: CDmax 1.8
#
DISCID=c90b340f
DTITLE=the sugar kings - take your time, mr. brown
DYEAR=1999
DGENRE=Blues
TTITLE0=papa's on the house top
TTITLE1=ice cream man
TTITLE2=gillum's windy blues
TTITLE3=furniture man
TTITLE4=fixin' to die
TTITLE5=sad sap sucker
TTITLE6=bad luck blues
TTITLE7=crazy about you
TTITLE8=leavin' home
TTITLE9=get up off that jazzophone
TTITLE10=oh lonesome me
TTITLE11=darling's dream
TTITLE12=bear cat mama
TTITLE13=is you is or is you ain't (ma' baby)
TTITLE14=on the road again
EXTD=
EXTT0=
EXTT1=
EXTT2=
EXTT3=
EXTT4=
EXTT5=
EXTT6=
EXTT7=
EXTT8=
EXTT9=
EXTT10=
EXTT11=
EXTT12=
EXTT13=
EXTT14=
PLAYORDER=
